# xmcd
#
# Track frame offsets:
# 150
# 18547
# 34131
# 49784
# 67903
# 87958
# 104153
# 120460
# 137186
# 156224
# 170901
# 187557
# 206233
#
# Disc length: 2974 seconds
#
# Revision: 1
# Processed by: cddbd v1.4PL0 Copyright (c) Steve Scherf et al.
# Submitted via: CedeCatalogueitor 2.5 http://usuarios.lycos.es/kakasboy
#
DISCID=b60b9c0d
DTITLE=Clara Montes - El Sur De La Pasión
DYEAR=1900
DGENRE=
TTITLE0=Luna
TTITLE1=La Barca
TTITLE2=Promesa De Abril
TTITLE3=Por Alegrías
TTITLE4=Luna Brava
TTITLE5=Plata Y Albero
TTITLE6=Nana Para Un Padre
TTITLE7=Leyle
TTITLE8=Si La Vida Te Sonríe
TTITLE9=En Un Cruce De Caminos
TTITLE10=Cuando Te Olvido
TTITLE11=Lisboa
TTITLE12=El Sur De La Pasión
EXTD=
EXTT0=
EXTT1=
EXTT2=
EXTT3=
EXTT4=
EXTT5=
EXTT6=
EXTT7=
EXTT8=
EXTT9=
EXTT10=
EXTT11=
EXTT12=
PLAYORDER=
